<mxfile host="app.diagrams.net" agent="Mozilla/5.0 (Macintosh; Intel Mac OS X 10_15_7) AppleWebKit/537.36 (KHTML, like Gecko) Chrome/139.0.0.0 Safari/537.36" version="28.1.1">
  <diagram name="Страница — 1" id="Ymm9IvYTVDau_W00Nof3">
    <mxGraphModel dx="1351" dy="721" grid="1" gridSize="10" guides="1" tooltips="1" connect="1" arrows="1" fold="1" page="1" pageScale="1" pageWidth="827" pageHeight="1169" background="#EBEBEB" math="0" shadow="0">
      <root>
        <mxCell id="0" />
        <mxCell id="1" parent="0" />
        <mxCell id="POGBTDIMJyqNncyOfnlp-245" value="" style="rounded=1;whiteSpace=wrap;html=1;fillColor=none;strokeWidth=3;" parent="1" vertex="1">
          <mxGeometry x="300" y="530" width="1010" height="810" as="geometry" />
        </mxCell>
        <mxCell id="POGBTDIMJyqNncyOfnlp-6" value="" style="image;aspect=fixed;html=1;points=[];align=center;fontSize=12;image=img/lib/azure2/databases/Azure_Database_PostgreSQL_Server.svg;" parent="1" vertex="1">
          <mxGeometry x="750" y="550" width="108" height="144" as="geometry" />
        </mxCell>
        <mxCell id="POGBTDIMJyqNncyOfnlp-17" value="users" style="shape=table;startSize=30;container=1;collapsible=1;childLayout=tableLayout;fixedRows=1;rowLines=0;fontStyle=1;align=center;resizeLast=1;html=1;whiteSpace=wrap;swimlaneLine=1;shadow=0;swimlaneFillColor=none;strokeWidth=2;perimeterSpacing=3;spacingTop=0;" parent="1" vertex="1">
          <mxGeometry x="350" y="730" width="460" height="240" as="geometry" />
        </mxCell>
        <mxCell id="POGBTDIMJyqNncyOfnlp-18" value="" style="shape=tableRow;horizontal=0;startSize=0;swimlaneHead=0;swimlaneBody=0;fillColor=none;collapsible=0;dropTarget=0;points=[[0,0.5],[1,0.5]];portConstraint=eastwest;top=0;left=0;right=0;bottom=0;html=1;swimlaneLine=1;shadow=0;swimlaneFillColor=none;strokeWidth=2;perimeterSpacing=3;" parent="POGBTDIMJyqNncyOfnlp-17" vertex="1">
          <mxGeometry y="30" width="460" height="30" as="geometry" />
        </mxCell>
        <mxCell id="POGBTDIMJyqNncyOfnlp-19" value="PK" style="shape=partialRectangle;connectable=0;fillColor=none;top=0;left=0;bottom=0;right=0;fontStyle=1;overflow=hidden;html=1;whiteSpace=wrap;swimlaneLine=1;shadow=0;swimlaneFillColor=none;strokeWidth=2;perimeterSpacing=3;" parent="POGBTDIMJyqNncyOfnlp-18" vertex="1">
          <mxGeometry width="140" height="30" as="geometry">
            <mxRectangle width="140" height="30" as="alternateBounds" />
          </mxGeometry>
        </mxCell>
        <mxCell id="POGBTDIMJyqNncyOfnlp-20" value="id" style="shape=partialRectangle;connectable=0;fillColor=none;top=0;left=0;bottom=0;right=0;align=left;spacingLeft=6;fontStyle=5;overflow=hidden;html=1;whiteSpace=wrap;swimlaneLine=1;shadow=0;swimlaneFillColor=none;strokeWidth=2;perimeterSpacing=3;" parent="POGBTDIMJyqNncyOfnlp-18" vertex="1">
          <mxGeometry x="140" width="140" height="30" as="geometry">
            <mxRectangle width="140" height="30" as="alternateBounds" />
          </mxGeometry>
        </mxCell>
        <mxCell id="POGBTDIMJyqNncyOfnlp-57" value="SERIAL" style="shape=partialRectangle;connectable=0;fillColor=none;top=0;left=0;bottom=0;right=0;align=left;spacingLeft=6;fontStyle=5;overflow=hidden;html=1;whiteSpace=wrap;swimlaneLine=1;shadow=0;swimlaneFillColor=none;strokeWidth=2;perimeterSpacing=3;" parent="POGBTDIMJyqNncyOfnlp-18" vertex="1">
          <mxGeometry x="280" width="180" height="30" as="geometry">
            <mxRectangle width="180" height="30" as="alternateBounds" />
          </mxGeometry>
        </mxCell>
        <mxCell id="POGBTDIMJyqNncyOfnlp-94" style="shape=tableRow;horizontal=0;startSize=0;swimlaneHead=0;swimlaneBody=0;fillColor=none;collapsible=0;dropTarget=0;points=[[0,0.5],[1,0.5]];portConstraint=eastwest;top=0;left=0;right=0;bottom=0;html=1;swimlaneLine=1;shadow=0;swimlaneFillColor=none;strokeWidth=2;perimeterSpacing=3;" parent="POGBTDIMJyqNncyOfnlp-17" vertex="1">
          <mxGeometry y="60" width="460" height="30" as="geometry" />
        </mxCell>
        <mxCell id="POGBTDIMJyqNncyOfnlp-95" style="shape=partialRectangle;connectable=0;fillColor=none;top=0;left=0;bottom=0;right=0;editable=1;overflow=hidden;html=1;whiteSpace=wrap;swimlaneLine=1;shadow=0;swimlaneFillColor=none;strokeWidth=2;perimeterSpacing=3;" parent="POGBTDIMJyqNncyOfnlp-94" vertex="1">
          <mxGeometry width="140" height="30" as="geometry">
            <mxRectangle width="140" height="30" as="alternateBounds" />
          </mxGeometry>
        </mxCell>
        <mxCell id="POGBTDIMJyqNncyOfnlp-96" value="password_hash" style="shape=partialRectangle;connectable=0;fillColor=none;top=0;left=0;bottom=0;right=0;align=left;spacingLeft=6;overflow=hidden;html=1;whiteSpace=wrap;swimlaneLine=1;shadow=0;swimlaneFillColor=none;strokeWidth=2;perimeterSpacing=3;" parent="POGBTDIMJyqNncyOfnlp-94" vertex="1">
          <mxGeometry x="140" width="140" height="30" as="geometry">
            <mxRectangle width="140" height="30" as="alternateBounds" />
          </mxGeometry>
        </mxCell>
        <mxCell id="POGBTDIMJyqNncyOfnlp-97" value="TEXT &lt;b&gt;NOT NULL&lt;/b&gt;" style="shape=partialRectangle;connectable=0;fillColor=none;top=0;left=0;bottom=0;right=0;align=left;spacingLeft=6;overflow=hidden;html=1;whiteSpace=wrap;swimlaneLine=1;shadow=0;swimlaneFillColor=none;strokeWidth=2;perimeterSpacing=3;" parent="POGBTDIMJyqNncyOfnlp-94" vertex="1">
          <mxGeometry x="280" width="180" height="30" as="geometry">
            <mxRectangle width="180" height="30" as="alternateBounds" />
          </mxGeometry>
        </mxCell>
        <mxCell id="POGBTDIMJyqNncyOfnlp-24" value="" style="shape=tableRow;horizontal=0;startSize=0;swimlaneHead=0;swimlaneBody=0;fillColor=none;collapsible=0;dropTarget=0;points=[[0,0.5],[1,0.5]];portConstraint=eastwest;top=0;left=0;right=0;bottom=0;html=1;swimlaneLine=1;shadow=0;swimlaneFillColor=none;strokeWidth=2;perimeterSpacing=3;" parent="POGBTDIMJyqNncyOfnlp-17" vertex="1">
          <mxGeometry y="90" width="460" height="30" as="geometry" />
        </mxCell>
        <mxCell id="POGBTDIMJyqNncyOfnlp-25" value="" style="shape=partialRectangle;connectable=0;fillColor=none;top=0;left=0;bottom=0;right=0;editable=1;overflow=hidden;html=1;whiteSpace=wrap;swimlaneLine=1;shadow=0;swimlaneFillColor=none;strokeWidth=2;perimeterSpacing=3;" parent="POGBTDIMJyqNncyOfnlp-24" vertex="1">
          <mxGeometry width="140" height="30" as="geometry">
            <mxRectangle width="140" height="30" as="alternateBounds" />
          </mxGeometry>
        </mxCell>
        <mxCell id="POGBTDIMJyqNncyOfnlp-26" value="username" style="shape=partialRectangle;connectable=0;fillColor=none;top=0;left=0;bottom=0;right=0;align=left;spacingLeft=6;overflow=hidden;html=1;whiteSpace=wrap;swimlaneLine=1;shadow=0;swimlaneFillColor=none;strokeWidth=2;perimeterSpacing=3;" parent="POGBTDIMJyqNncyOfnlp-24" vertex="1">
          <mxGeometry x="140" width="140" height="30" as="geometry">
            <mxRectangle width="140" height="30" as="alternateBounds" />
          </mxGeometry>
        </mxCell>
        <mxCell id="POGBTDIMJyqNncyOfnlp-59" value="TEXT &lt;b&gt;NOT NULL UNIQUE&lt;/b&gt;" style="shape=partialRectangle;connectable=0;fillColor=none;top=0;left=0;bottom=0;right=0;align=left;spacingLeft=6;overflow=hidden;html=1;whiteSpace=wrap;swimlaneLine=1;shadow=0;swimlaneFillColor=none;strokeWidth=2;perimeterSpacing=3;" parent="POGBTDIMJyqNncyOfnlp-24" vertex="1">
          <mxGeometry x="280" width="180" height="30" as="geometry">
            <mxRectangle width="180" height="30" as="alternateBounds" />
          </mxGeometry>
        </mxCell>
        <mxCell id="POGBTDIMJyqNncyOfnlp-27" value="" style="shape=tableRow;horizontal=0;startSize=0;swimlaneHead=0;swimlaneBody=0;fillColor=none;collapsible=0;dropTarget=0;points=[[0,0.5],[1,0.5]];portConstraint=eastwest;top=0;left=0;right=0;bottom=0;html=1;swimlaneLine=1;shadow=0;swimlaneFillColor=none;strokeWidth=2;perimeterSpacing=3;" parent="POGBTDIMJyqNncyOfnlp-17" vertex="1">
          <mxGeometry y="120" width="460" height="30" as="geometry" />
        </mxCell>
        <mxCell id="POGBTDIMJyqNncyOfnlp-28" value="" style="shape=partialRectangle;connectable=0;fillColor=none;top=0;left=0;bottom=0;right=0;editable=1;overflow=hidden;html=1;whiteSpace=wrap;swimlaneLine=1;shadow=0;swimlaneFillColor=none;strokeWidth=2;perimeterSpacing=3;" parent="POGBTDIMJyqNncyOfnlp-27" vertex="1">
          <mxGeometry width="140" height="30" as="geometry">
            <mxRectangle width="140" height="30" as="alternateBounds" />
          </mxGeometry>
        </mxCell>
        <mxCell id="POGBTDIMJyqNncyOfnlp-29" value="first_name" style="shape=partialRectangle;connectable=0;fillColor=none;top=0;left=0;bottom=0;right=0;align=left;spacingLeft=6;overflow=hidden;html=1;whiteSpace=wrap;swimlaneLine=1;shadow=0;swimlaneFillColor=none;strokeWidth=2;perimeterSpacing=3;" parent="POGBTDIMJyqNncyOfnlp-27" vertex="1">
          <mxGeometry x="140" width="140" height="30" as="geometry">
            <mxRectangle width="140" height="30" as="alternateBounds" />
          </mxGeometry>
        </mxCell>
        <mxCell id="POGBTDIMJyqNncyOfnlp-60" value="TEXT" style="shape=partialRectangle;connectable=0;fillColor=none;top=0;left=0;bottom=0;right=0;align=left;spacingLeft=6;overflow=hidden;html=1;whiteSpace=wrap;swimlaneLine=1;shadow=0;swimlaneFillColor=none;strokeWidth=2;perimeterSpacing=3;" parent="POGBTDIMJyqNncyOfnlp-27" vertex="1">
          <mxGeometry x="280" width="180" height="30" as="geometry">
            <mxRectangle width="180" height="30" as="alternateBounds" />
          </mxGeometry>
        </mxCell>
        <mxCell id="POGBTDIMJyqNncyOfnlp-65" style="shape=tableRow;horizontal=0;startSize=0;swimlaneHead=0;swimlaneBody=0;fillColor=none;collapsible=0;dropTarget=0;points=[[0,0.5],[1,0.5]];portConstraint=eastwest;top=0;left=0;right=0;bottom=0;html=1;swimlaneLine=1;shadow=0;swimlaneFillColor=none;strokeWidth=2;perimeterSpacing=3;" parent="POGBTDIMJyqNncyOfnlp-17" vertex="1">
          <mxGeometry y="150" width="460" height="30" as="geometry" />
        </mxCell>
        <mxCell id="POGBTDIMJyqNncyOfnlp-66" style="shape=partialRectangle;connectable=0;fillColor=none;top=0;left=0;bottom=0;right=0;editable=1;overflow=hidden;html=1;whiteSpace=wrap;swimlaneLine=1;shadow=0;swimlaneFillColor=none;strokeWidth=2;perimeterSpacing=3;" parent="POGBTDIMJyqNncyOfnlp-65" vertex="1">
          <mxGeometry width="140" height="30" as="geometry">
            <mxRectangle width="140" height="30" as="alternateBounds" />
          </mxGeometry>
        </mxCell>
        <mxCell id="POGBTDIMJyqNncyOfnlp-67" value="created_at" style="shape=partialRectangle;connectable=0;fillColor=none;top=0;left=0;bottom=0;right=0;align=left;spacingLeft=6;overflow=hidden;html=1;whiteSpace=wrap;swimlaneLine=1;shadow=0;swimlaneFillColor=none;strokeWidth=2;perimeterSpacing=3;" parent="POGBTDIMJyqNncyOfnlp-65" vertex="1">
          <mxGeometry x="140" width="140" height="30" as="geometry">
            <mxRectangle width="140" height="30" as="alternateBounds" />
          </mxGeometry>
        </mxCell>
        <mxCell id="POGBTDIMJyqNncyOfnlp-68" value="TIMESTAMP &lt;b&gt;NOT NULL&lt;/b&gt;" style="shape=partialRectangle;connectable=0;fillColor=none;top=0;left=0;bottom=0;right=0;align=left;spacingLeft=6;overflow=hidden;html=1;whiteSpace=wrap;swimlaneLine=1;shadow=0;swimlaneFillColor=none;strokeWidth=2;perimeterSpacing=3;" parent="POGBTDIMJyqNncyOfnlp-65" vertex="1">
          <mxGeometry x="280" width="180" height="30" as="geometry">
            <mxRectangle width="180" height="30" as="alternateBounds" />
          </mxGeometry>
        </mxCell>
        <mxCell id="POGBTDIMJyqNncyOfnlp-61" style="shape=tableRow;horizontal=0;startSize=0;swimlaneHead=0;swimlaneBody=0;fillColor=none;collapsible=0;dropTarget=0;points=[[0,0.5],[1,0.5]];portConstraint=eastwest;top=0;left=0;right=0;bottom=0;html=1;swimlaneLine=1;shadow=0;swimlaneFillColor=none;strokeWidth=2;perimeterSpacing=3;" parent="POGBTDIMJyqNncyOfnlp-17" vertex="1">
          <mxGeometry y="180" width="460" height="30" as="geometry" />
        </mxCell>
        <mxCell id="POGBTDIMJyqNncyOfnlp-62" style="shape=partialRectangle;connectable=0;fillColor=none;top=0;left=0;bottom=0;right=0;editable=1;overflow=hidden;html=1;whiteSpace=wrap;swimlaneLine=1;shadow=0;swimlaneFillColor=none;strokeWidth=2;perimeterSpacing=3;" parent="POGBTDIMJyqNncyOfnlp-61" vertex="1">
          <mxGeometry width="140" height="30" as="geometry">
            <mxRectangle width="140" height="30" as="alternateBounds" />
          </mxGeometry>
        </mxCell>
        <mxCell id="POGBTDIMJyqNncyOfnlp-63" value="user_role" style="shape=partialRectangle;connectable=0;fillColor=none;top=0;left=0;bottom=0;right=0;align=left;spacingLeft=6;overflow=hidden;html=1;whiteSpace=wrap;swimlaneLine=1;shadow=0;swimlaneFillColor=none;strokeWidth=2;perimeterSpacing=3;" parent="POGBTDIMJyqNncyOfnlp-61" vertex="1">
          <mxGeometry x="140" width="140" height="30" as="geometry">
            <mxRectangle width="140" height="30" as="alternateBounds" />
          </mxGeometry>
        </mxCell>
        <mxCell id="POGBTDIMJyqNncyOfnlp-64" value="TEXT &lt;b&gt;NOT NULL&lt;/b&gt;" style="shape=partialRectangle;connectable=0;fillColor=none;top=0;left=0;bottom=0;right=0;align=left;spacingLeft=6;overflow=hidden;html=1;whiteSpace=wrap;swimlaneLine=1;shadow=0;swimlaneFillColor=none;strokeWidth=2;perimeterSpacing=3;" parent="POGBTDIMJyqNncyOfnlp-61" vertex="1">
          <mxGeometry x="280" width="180" height="30" as="geometry">
            <mxRectangle width="180" height="30" as="alternateBounds" />
          </mxGeometry>
        </mxCell>
        <mxCell id="nwFIMBfXNQ-vf0I2faGE-1" style="shape=tableRow;horizontal=0;startSize=0;swimlaneHead=0;swimlaneBody=0;fillColor=none;collapsible=0;dropTarget=0;points=[[0,0.5],[1,0.5]];portConstraint=eastwest;top=0;left=0;right=0;bottom=0;html=1;swimlaneLine=1;shadow=0;swimlaneFillColor=none;strokeWidth=2;perimeterSpacing=3;" vertex="1" parent="POGBTDIMJyqNncyOfnlp-17">
          <mxGeometry y="210" width="460" height="30" as="geometry" />
        </mxCell>
        <mxCell id="nwFIMBfXNQ-vf0I2faGE-2" style="shape=partialRectangle;connectable=0;fillColor=none;top=0;left=0;bottom=0;right=0;editable=1;overflow=hidden;html=1;whiteSpace=wrap;swimlaneLine=1;shadow=0;swimlaneFillColor=none;strokeWidth=2;perimeterSpacing=3;" vertex="1" parent="nwFIMBfXNQ-vf0I2faGE-1">
          <mxGeometry width="140" height="30" as="geometry">
            <mxRectangle width="140" height="30" as="alternateBounds" />
          </mxGeometry>
        </mxCell>
        <mxCell id="nwFIMBfXNQ-vf0I2faGE-3" value="user_status" style="shape=partialRectangle;connectable=0;fillColor=none;top=0;left=0;bottom=0;right=0;align=left;spacingLeft=6;overflow=hidden;html=1;whiteSpace=wrap;swimlaneLine=1;shadow=0;swimlaneFillColor=none;strokeWidth=2;perimeterSpacing=3;" vertex="1" parent="nwFIMBfXNQ-vf0I2faGE-1">
          <mxGeometry x="140" width="140" height="30" as="geometry">
            <mxRectangle width="140" height="30" as="alternateBounds" />
          </mxGeometry>
        </mxCell>
        <mxCell id="nwFIMBfXNQ-vf0I2faGE-4" value="TEXT&amp;nbsp;&lt;b&gt;NOT NULL&lt;/b&gt;" style="shape=partialRectangle;connectable=0;fillColor=none;top=0;left=0;bottom=0;right=0;align=left;spacingLeft=6;overflow=hidden;html=1;whiteSpace=wrap;swimlaneLine=1;shadow=0;swimlaneFillColor=none;strokeWidth=2;perimeterSpacing=3;" vertex="1" parent="nwFIMBfXNQ-vf0I2faGE-1">
          <mxGeometry x="280" width="180" height="30" as="geometry">
            <mxRectangle width="180" height="30" as="alternateBounds" />
          </mxGeometry>
        </mxCell>
        <mxCell id="POGBTDIMJyqNncyOfnlp-69" value="blogs" style="shape=table;startSize=30;container=1;collapsible=1;childLayout=tableLayout;fixedRows=1;rowLines=0;fontStyle=1;align=center;resizeLast=1;html=1;whiteSpace=wrap;swimlaneLine=1;shadow=0;swimlaneFillColor=none;strokeWidth=2;perimeterSpacing=3;spacingTop=0;" parent="1" vertex="1">
          <mxGeometry x="830" y="730" width="370" height="270" as="geometry" />
        </mxCell>
        <mxCell id="POGBTDIMJyqNncyOfnlp-70" value="" style="shape=tableRow;horizontal=0;startSize=0;swimlaneHead=0;swimlaneBody=0;fillColor=none;collapsible=0;dropTarget=0;points=[[0,0.5],[1,0.5]];portConstraint=eastwest;top=0;left=0;right=0;bottom=0;html=1;swimlaneLine=1;shadow=0;swimlaneFillColor=none;strokeWidth=2;perimeterSpacing=3;" parent="POGBTDIMJyqNncyOfnlp-69" vertex="1">
          <mxGeometry y="30" width="370" height="30" as="geometry" />
        </mxCell>
        <mxCell id="POGBTDIMJyqNncyOfnlp-71" value="PK" style="shape=partialRectangle;connectable=0;fillColor=none;top=0;left=0;bottom=0;right=0;fontStyle=1;overflow=hidden;html=1;whiteSpace=wrap;swimlaneLine=1;shadow=0;swimlaneFillColor=none;strokeWidth=2;perimeterSpacing=3;" parent="POGBTDIMJyqNncyOfnlp-70" vertex="1">
          <mxGeometry width="120" height="30" as="geometry">
            <mxRectangle width="120" height="30" as="alternateBounds" />
          </mxGeometry>
        </mxCell>
        <mxCell id="POGBTDIMJyqNncyOfnlp-72" value="id" style="shape=partialRectangle;connectable=0;fillColor=none;top=0;left=0;bottom=0;right=0;align=left;spacingLeft=6;fontStyle=5;overflow=hidden;html=1;whiteSpace=wrap;swimlaneLine=1;shadow=0;swimlaneFillColor=none;strokeWidth=2;perimeterSpacing=3;" parent="POGBTDIMJyqNncyOfnlp-70" vertex="1">
          <mxGeometry x="120" width="90" height="30" as="geometry">
            <mxRectangle width="90" height="30" as="alternateBounds" />
          </mxGeometry>
        </mxCell>
        <mxCell id="POGBTDIMJyqNncyOfnlp-73" value="SERIAL" style="shape=partialRectangle;connectable=0;fillColor=none;top=0;left=0;bottom=0;right=0;align=left;spacingLeft=6;fontStyle=5;overflow=hidden;html=1;whiteSpace=wrap;swimlaneLine=1;shadow=0;swimlaneFillColor=none;strokeWidth=2;perimeterSpacing=3;" parent="POGBTDIMJyqNncyOfnlp-70" vertex="1">
          <mxGeometry x="210" width="160" height="30" as="geometry">
            <mxRectangle width="160" height="30" as="alternateBounds" />
          </mxGeometry>
        </mxCell>
        <mxCell id="POGBTDIMJyqNncyOfnlp-74" value="" style="shape=tableRow;horizontal=0;startSize=0;swimlaneHead=0;swimlaneBody=0;fillColor=none;collapsible=0;dropTarget=0;points=[[0,0.5],[1,0.5]];portConstraint=eastwest;top=0;left=0;right=0;bottom=0;html=1;swimlaneLine=1;shadow=0;swimlaneFillColor=none;strokeWidth=2;perimeterSpacing=3;" parent="POGBTDIMJyqNncyOfnlp-69" vertex="1">
          <mxGeometry y="60" width="370" height="30" as="geometry" />
        </mxCell>
        <mxCell id="POGBTDIMJyqNncyOfnlp-75" value="&lt;b&gt;FK users.&lt;/b&gt;&lt;b&gt;id&lt;/b&gt;" style="shape=partialRectangle;connectable=0;fillColor=none;top=0;left=0;bottom=0;right=0;editable=1;overflow=hidden;html=1;whiteSpace=wrap;swimlaneLine=1;shadow=0;swimlaneFillColor=none;strokeWidth=2;perimeterSpacing=3;" parent="POGBTDIMJyqNncyOfnlp-74" vertex="1">
          <mxGeometry width="120" height="30" as="geometry">
            <mxRectangle width="120" height="30" as="alternateBounds" />
          </mxGeometry>
        </mxCell>
        <mxCell id="POGBTDIMJyqNncyOfnlp-76" value="user_id" style="shape=partialRectangle;connectable=0;fillColor=none;top=0;left=0;bottom=0;right=0;align=left;spacingLeft=6;overflow=hidden;html=1;whiteSpace=wrap;swimlaneLine=1;shadow=0;swimlaneFillColor=none;strokeWidth=2;perimeterSpacing=3;" parent="POGBTDIMJyqNncyOfnlp-74" vertex="1">
          <mxGeometry x="120" width="90" height="30" as="geometry">
            <mxRectangle width="90" height="30" as="alternateBounds" />
          </mxGeometry>
        </mxCell>
        <mxCell id="POGBTDIMJyqNncyOfnlp-77" value="INTEGER &lt;b&gt;NOT NULL&lt;/b&gt;" style="shape=partialRectangle;connectable=0;fillColor=none;top=0;left=0;bottom=0;right=0;align=left;spacingLeft=6;overflow=hidden;html=1;whiteSpace=wrap;swimlaneLine=1;shadow=0;swimlaneFillColor=none;strokeWidth=2;perimeterSpacing=3;" parent="POGBTDIMJyqNncyOfnlp-74" vertex="1">
          <mxGeometry x="210" width="160" height="30" as="geometry">
            <mxRectangle width="160" height="30" as="alternateBounds" />
          </mxGeometry>
        </mxCell>
        <mxCell id="POGBTDIMJyqNncyOfnlp-144" style="shape=tableRow;horizontal=0;startSize=0;swimlaneHead=0;swimlaneBody=0;fillColor=none;collapsible=0;dropTarget=0;points=[[0,0.5],[1,0.5]];portConstraint=eastwest;top=0;left=0;right=0;bottom=0;html=1;swimlaneLine=1;shadow=0;swimlaneFillColor=none;strokeWidth=2;perimeterSpacing=3;" parent="POGBTDIMJyqNncyOfnlp-69" vertex="1">
          <mxGeometry y="90" width="370" height="30" as="geometry" />
        </mxCell>
        <mxCell id="POGBTDIMJyqNncyOfnlp-145" style="shape=partialRectangle;connectable=0;fillColor=none;top=0;left=0;bottom=0;right=0;editable=1;overflow=hidden;html=1;whiteSpace=wrap;swimlaneLine=1;shadow=0;swimlaneFillColor=none;strokeWidth=2;perimeterSpacing=3;" parent="POGBTDIMJyqNncyOfnlp-144" vertex="1">
          <mxGeometry width="120" height="30" as="geometry">
            <mxRectangle width="120" height="30" as="alternateBounds" />
          </mxGeometry>
        </mxCell>
        <mxCell id="POGBTDIMJyqNncyOfnlp-146" value="created_at" style="shape=partialRectangle;connectable=0;fillColor=none;top=0;left=0;bottom=0;right=0;align=left;spacingLeft=6;overflow=hidden;html=1;whiteSpace=wrap;swimlaneLine=1;shadow=0;swimlaneFillColor=none;strokeWidth=2;perimeterSpacing=3;" parent="POGBTDIMJyqNncyOfnlp-144" vertex="1">
          <mxGeometry x="120" width="90" height="30" as="geometry">
            <mxRectangle width="90" height="30" as="alternateBounds" />
          </mxGeometry>
        </mxCell>
        <mxCell id="POGBTDIMJyqNncyOfnlp-147" value="TIMESTAMP &lt;b&gt;NOT NULL&lt;/b&gt;" style="shape=partialRectangle;connectable=0;fillColor=none;top=0;left=0;bottom=0;right=0;align=left;spacingLeft=6;overflow=hidden;html=1;whiteSpace=wrap;swimlaneLine=1;shadow=0;swimlaneFillColor=none;strokeWidth=2;perimeterSpacing=3;" parent="POGBTDIMJyqNncyOfnlp-144" vertex="1">
          <mxGeometry x="210" width="160" height="30" as="geometry">
            <mxRectangle width="160" height="30" as="alternateBounds" />
          </mxGeometry>
        </mxCell>
        <mxCell id="POGBTDIMJyqNncyOfnlp-82" style="shape=tableRow;horizontal=0;startSize=0;swimlaneHead=0;swimlaneBody=0;fillColor=none;collapsible=0;dropTarget=0;points=[[0,0.5],[1,0.5]];portConstraint=eastwest;top=0;left=0;right=0;bottom=0;html=1;swimlaneLine=1;shadow=0;swimlaneFillColor=none;strokeWidth=2;perimeterSpacing=3;" parent="POGBTDIMJyqNncyOfnlp-69" vertex="1">
          <mxGeometry y="120" width="370" height="30" as="geometry" />
        </mxCell>
        <mxCell id="POGBTDIMJyqNncyOfnlp-83" style="shape=partialRectangle;connectable=0;fillColor=none;top=0;left=0;bottom=0;right=0;editable=1;overflow=hidden;html=1;whiteSpace=wrap;swimlaneLine=1;shadow=0;swimlaneFillColor=none;strokeWidth=2;perimeterSpacing=3;" parent="POGBTDIMJyqNncyOfnlp-82" vertex="1">
          <mxGeometry width="120" height="30" as="geometry">
            <mxRectangle width="120" height="30" as="alternateBounds" />
          </mxGeometry>
        </mxCell>
        <mxCell id="POGBTDIMJyqNncyOfnlp-84" value="updated_at" style="shape=partialRectangle;connectable=0;fillColor=none;top=0;left=0;bottom=0;right=0;align=left;spacingLeft=6;overflow=hidden;html=1;whiteSpace=wrap;swimlaneLine=1;shadow=0;swimlaneFillColor=none;strokeWidth=2;perimeterSpacing=3;" parent="POGBTDIMJyqNncyOfnlp-82" vertex="1">
          <mxGeometry x="120" width="90" height="30" as="geometry">
            <mxRectangle width="90" height="30" as="alternateBounds" />
          </mxGeometry>
        </mxCell>
        <mxCell id="POGBTDIMJyqNncyOfnlp-85" value="TIMESTAMP&amp;nbsp;&lt;b&gt;NOT NULL&lt;/b&gt;" style="shape=partialRectangle;connectable=0;fillColor=none;top=0;left=0;bottom=0;right=0;align=left;spacingLeft=6;overflow=hidden;html=1;whiteSpace=wrap;swimlaneLine=1;shadow=0;swimlaneFillColor=none;strokeWidth=2;perimeterSpacing=3;" parent="POGBTDIMJyqNncyOfnlp-82" vertex="1">
          <mxGeometry x="210" width="160" height="30" as="geometry">
            <mxRectangle width="160" height="30" as="alternateBounds" />
          </mxGeometry>
        </mxCell>
        <mxCell id="POGBTDIMJyqNncyOfnlp-135" style="shape=tableRow;horizontal=0;startSize=0;swimlaneHead=0;swimlaneBody=0;fillColor=none;collapsible=0;dropTarget=0;points=[[0,0.5],[1,0.5]];portConstraint=eastwest;top=0;left=0;right=0;bottom=0;html=1;swimlaneLine=1;shadow=0;swimlaneFillColor=none;strokeWidth=2;perimeterSpacing=3;" parent="POGBTDIMJyqNncyOfnlp-69" vertex="1">
          <mxGeometry y="150" width="370" height="30" as="geometry" />
        </mxCell>
        <mxCell id="POGBTDIMJyqNncyOfnlp-136" style="shape=partialRectangle;connectable=0;fillColor=none;top=0;left=0;bottom=0;right=0;editable=1;overflow=hidden;html=1;whiteSpace=wrap;swimlaneLine=1;shadow=0;swimlaneFillColor=none;strokeWidth=2;perimeterSpacing=3;" parent="POGBTDIMJyqNncyOfnlp-135" vertex="1">
          <mxGeometry width="120" height="30" as="geometry">
            <mxRectangle width="120" height="30" as="alternateBounds" />
          </mxGeometry>
        </mxCell>
        <mxCell id="POGBTDIMJyqNncyOfnlp-137" value="title" style="shape=partialRectangle;connectable=0;fillColor=none;top=0;left=0;bottom=0;right=0;align=left;spacingLeft=6;overflow=hidden;html=1;whiteSpace=wrap;swimlaneLine=1;shadow=0;swimlaneFillColor=none;strokeWidth=2;perimeterSpacing=3;" parent="POGBTDIMJyqNncyOfnlp-135" vertex="1">
          <mxGeometry x="120" width="90" height="30" as="geometry">
            <mxRectangle width="90" height="30" as="alternateBounds" />
          </mxGeometry>
        </mxCell>
        <mxCell id="POGBTDIMJyqNncyOfnlp-138" value="TEXT &lt;b&gt;NOT NULL&lt;/b&gt;" style="shape=partialRectangle;connectable=0;fillColor=none;top=0;left=0;bottom=0;right=0;align=left;spacingLeft=6;overflow=hidden;html=1;whiteSpace=wrap;swimlaneLine=1;shadow=0;swimlaneFillColor=none;strokeWidth=2;perimeterSpacing=3;" parent="POGBTDIMJyqNncyOfnlp-135" vertex="1">
          <mxGeometry x="210" width="160" height="30" as="geometry">
            <mxRectangle width="160" height="30" as="alternateBounds" />
          </mxGeometry>
        </mxCell>
        <mxCell id="POGBTDIMJyqNncyOfnlp-86" style="shape=tableRow;horizontal=0;startSize=0;swimlaneHead=0;swimlaneBody=0;fillColor=none;collapsible=0;dropTarget=0;points=[[0,0.5],[1,0.5]];portConstraint=eastwest;top=0;left=0;right=0;bottom=0;html=1;swimlaneLine=1;shadow=0;swimlaneFillColor=none;strokeWidth=2;perimeterSpacing=3;" parent="POGBTDIMJyqNncyOfnlp-69" vertex="1">
          <mxGeometry y="180" width="370" height="30" as="geometry" />
        </mxCell>
        <mxCell id="POGBTDIMJyqNncyOfnlp-87" style="shape=partialRectangle;connectable=0;fillColor=none;top=0;left=0;bottom=0;right=0;editable=1;overflow=hidden;html=1;whiteSpace=wrap;swimlaneLine=1;shadow=0;swimlaneFillColor=none;strokeWidth=2;perimeterSpacing=3;" parent="POGBTDIMJyqNncyOfnlp-86" vertex="1">
          <mxGeometry width="120" height="30" as="geometry">
            <mxRectangle width="120" height="30" as="alternateBounds" />
          </mxGeometry>
        </mxCell>
        <mxCell id="POGBTDIMJyqNncyOfnlp-88" value="content" style="shape=partialRectangle;connectable=0;fillColor=none;top=0;left=0;bottom=0;right=0;align=left;spacingLeft=6;overflow=hidden;html=1;whiteSpace=wrap;swimlaneLine=1;shadow=0;swimlaneFillColor=none;strokeWidth=2;perimeterSpacing=3;" parent="POGBTDIMJyqNncyOfnlp-86" vertex="1">
          <mxGeometry x="120" width="90" height="30" as="geometry">
            <mxRectangle width="90" height="30" as="alternateBounds" />
          </mxGeometry>
        </mxCell>
        <mxCell id="POGBTDIMJyqNncyOfnlp-89" value="TEXT&amp;nbsp;&lt;b&gt;NOT NULL&lt;/b&gt;" style="shape=partialRectangle;connectable=0;fillColor=none;top=0;left=0;bottom=0;right=0;align=left;spacingLeft=6;overflow=hidden;html=1;whiteSpace=wrap;swimlaneLine=1;shadow=0;swimlaneFillColor=none;strokeWidth=2;perimeterSpacing=3;" parent="POGBTDIMJyqNncyOfnlp-86" vertex="1">
          <mxGeometry x="210" width="160" height="30" as="geometry">
            <mxRectangle width="160" height="30" as="alternateBounds" />
          </mxGeometry>
        </mxCell>
        <mxCell id="POGBTDIMJyqNncyOfnlp-187" style="shape=tableRow;horizontal=0;startSize=0;swimlaneHead=0;swimlaneBody=0;fillColor=none;collapsible=0;dropTarget=0;points=[[0,0.5],[1,0.5]];portConstraint=eastwest;top=0;left=0;right=0;bottom=0;html=1;swimlaneLine=1;shadow=0;swimlaneFillColor=none;strokeWidth=2;perimeterSpacing=3;" parent="POGBTDIMJyqNncyOfnlp-69" vertex="1">
          <mxGeometry y="210" width="370" height="30" as="geometry" />
        </mxCell>
        <mxCell id="POGBTDIMJyqNncyOfnlp-188" style="shape=partialRectangle;connectable=0;fillColor=none;top=0;left=0;bottom=0;right=0;editable=1;overflow=hidden;html=1;whiteSpace=wrap;swimlaneLine=1;shadow=0;swimlaneFillColor=none;strokeWidth=2;perimeterSpacing=3;" parent="POGBTDIMJyqNncyOfnlp-187" vertex="1">
          <mxGeometry width="120" height="30" as="geometry">
            <mxRectangle width="120" height="30" as="alternateBounds" />
          </mxGeometry>
        </mxCell>
        <mxCell id="POGBTDIMJyqNncyOfnlp-189" value="tags" style="shape=partialRectangle;connectable=0;fillColor=none;top=0;left=0;bottom=0;right=0;align=left;spacingLeft=6;overflow=hidden;html=1;whiteSpace=wrap;swimlaneLine=1;shadow=0;swimlaneFillColor=none;strokeWidth=2;perimeterSpacing=3;" parent="POGBTDIMJyqNncyOfnlp-187" vertex="1">
          <mxGeometry x="120" width="90" height="30" as="geometry">
            <mxRectangle width="90" height="30" as="alternateBounds" />
          </mxGeometry>
        </mxCell>
        <mxCell id="POGBTDIMJyqNncyOfnlp-190" value="TEXT [ ]&amp;nbsp;&lt;b&gt;NOT NULL&lt;/b&gt;" style="shape=partialRectangle;connectable=0;fillColor=none;top=0;left=0;bottom=0;right=0;align=left;spacingLeft=6;overflow=hidden;html=1;whiteSpace=wrap;swimlaneLine=1;shadow=0;swimlaneFillColor=none;strokeWidth=2;perimeterSpacing=3;" parent="POGBTDIMJyqNncyOfnlp-187" vertex="1">
          <mxGeometry x="210" width="160" height="30" as="geometry">
            <mxRectangle width="160" height="30" as="alternateBounds" />
          </mxGeometry>
        </mxCell>
        <mxCell id="POGBTDIMJyqNncyOfnlp-179" style="shape=tableRow;horizontal=0;startSize=0;swimlaneHead=0;swimlaneBody=0;fillColor=none;collapsible=0;dropTarget=0;points=[[0,0.5],[1,0.5]];portConstraint=eastwest;top=0;left=0;right=0;bottom=0;html=1;swimlaneLine=1;shadow=0;swimlaneFillColor=none;strokeWidth=2;perimeterSpacing=3;" parent="POGBTDIMJyqNncyOfnlp-69" vertex="1">
          <mxGeometry y="240" width="370" height="30" as="geometry" />
        </mxCell>
        <mxCell id="POGBTDIMJyqNncyOfnlp-180" style="shape=partialRectangle;connectable=0;fillColor=none;top=0;left=0;bottom=0;right=0;editable=1;overflow=hidden;html=1;whiteSpace=wrap;swimlaneLine=1;shadow=0;swimlaneFillColor=none;strokeWidth=2;perimeterSpacing=3;" parent="POGBTDIMJyqNncyOfnlp-179" vertex="1">
          <mxGeometry width="120" height="30" as="geometry">
            <mxRectangle width="120" height="30" as="alternateBounds" />
          </mxGeometry>
        </mxCell>
        <mxCell id="POGBTDIMJyqNncyOfnlp-181" value="blog_status" style="shape=partialRectangle;connectable=0;fillColor=none;top=0;left=0;bottom=0;right=0;align=left;spacingLeft=6;overflow=hidden;html=1;whiteSpace=wrap;swimlaneLine=1;shadow=0;swimlaneFillColor=none;strokeWidth=2;perimeterSpacing=3;" parent="POGBTDIMJyqNncyOfnlp-179" vertex="1">
          <mxGeometry x="120" width="90" height="30" as="geometry">
            <mxRectangle width="90" height="30" as="alternateBounds" />
          </mxGeometry>
        </mxCell>
        <mxCell id="POGBTDIMJyqNncyOfnlp-182" value="TEXT&amp;nbsp;&lt;b&gt;NOT NULL&lt;/b&gt;" style="shape=partialRectangle;connectable=0;fillColor=none;top=0;left=0;bottom=0;right=0;align=left;spacingLeft=6;overflow=hidden;html=1;whiteSpace=wrap;swimlaneLine=1;shadow=0;swimlaneFillColor=none;strokeWidth=2;perimeterSpacing=3;" parent="POGBTDIMJyqNncyOfnlp-179" vertex="1">
          <mxGeometry x="210" width="160" height="30" as="geometry">
            <mxRectangle width="160" height="30" as="alternateBounds" />
          </mxGeometry>
        </mxCell>
        <mxCell id="POGBTDIMJyqNncyOfnlp-148" value="comments" style="shape=table;startSize=30;container=1;collapsible=1;childLayout=tableLayout;fixedRows=1;rowLines=0;fontStyle=1;align=center;resizeLast=1;html=1;whiteSpace=wrap;swimlaneLine=1;shadow=0;swimlaneFillColor=none;strokeWidth=2;perimeterSpacing=3;spacingTop=0;" parent="1" vertex="1">
          <mxGeometry x="350" y="1000" width="470" height="240" as="geometry" />
        </mxCell>
        <mxCell id="POGBTDIMJyqNncyOfnlp-149" value="" style="shape=tableRow;horizontal=0;startSize=0;swimlaneHead=0;swimlaneBody=0;fillColor=none;collapsible=0;dropTarget=0;points=[[0,0.5],[1,0.5]];portConstraint=eastwest;top=0;left=0;right=0;bottom=0;html=1;swimlaneLine=1;shadow=0;swimlaneFillColor=none;strokeWidth=2;perimeterSpacing=3;" parent="POGBTDIMJyqNncyOfnlp-148" vertex="1">
          <mxGeometry y="30" width="470" height="30" as="geometry" />
        </mxCell>
        <mxCell id="POGBTDIMJyqNncyOfnlp-150" value="PK" style="shape=partialRectangle;connectable=0;fillColor=none;top=0;left=0;bottom=0;right=0;fontStyle=1;overflow=hidden;html=1;whiteSpace=wrap;swimlaneLine=1;shadow=0;swimlaneFillColor=none;strokeWidth=2;perimeterSpacing=3;" parent="POGBTDIMJyqNncyOfnlp-149" vertex="1">
          <mxGeometry width="140" height="30" as="geometry">
            <mxRectangle width="140" height="30" as="alternateBounds" />
          </mxGeometry>
        </mxCell>
        <mxCell id="POGBTDIMJyqNncyOfnlp-151" value="id" style="shape=partialRectangle;connectable=0;fillColor=none;top=0;left=0;bottom=0;right=0;align=left;spacingLeft=6;fontStyle=5;overflow=hidden;html=1;whiteSpace=wrap;swimlaneLine=1;shadow=0;swimlaneFillColor=none;strokeWidth=2;perimeterSpacing=3;" parent="POGBTDIMJyqNncyOfnlp-149" vertex="1">
          <mxGeometry x="140" width="140" height="30" as="geometry">
            <mxRectangle width="140" height="30" as="alternateBounds" />
          </mxGeometry>
        </mxCell>
        <mxCell id="POGBTDIMJyqNncyOfnlp-152" value="SERIAL" style="shape=partialRectangle;connectable=0;fillColor=none;top=0;left=0;bottom=0;right=0;align=left;spacingLeft=6;fontStyle=5;overflow=hidden;html=1;whiteSpace=wrap;swimlaneLine=1;shadow=0;swimlaneFillColor=none;strokeWidth=2;perimeterSpacing=3;" parent="POGBTDIMJyqNncyOfnlp-149" vertex="1">
          <mxGeometry x="280" width="190" height="30" as="geometry">
            <mxRectangle width="190" height="30" as="alternateBounds" />
          </mxGeometry>
        </mxCell>
        <mxCell id="POGBTDIMJyqNncyOfnlp-153" value="" style="shape=tableRow;horizontal=0;startSize=0;swimlaneHead=0;swimlaneBody=0;fillColor=none;collapsible=0;dropTarget=0;points=[[0,0.5],[1,0.5]];portConstraint=eastwest;top=0;left=0;right=0;bottom=0;html=1;swimlaneLine=1;shadow=0;swimlaneFillColor=none;strokeWidth=2;perimeterSpacing=3;" parent="POGBTDIMJyqNncyOfnlp-148" vertex="1">
          <mxGeometry y="60" width="470" height="30" as="geometry" />
        </mxCell>
        <mxCell id="POGBTDIMJyqNncyOfnlp-154" value="&lt;b&gt;FK blogs.&lt;/b&gt;&lt;b&gt;id&lt;/b&gt;" style="shape=partialRectangle;connectable=0;fillColor=none;top=0;left=0;bottom=0;right=0;editable=1;overflow=hidden;html=1;whiteSpace=wrap;swimlaneLine=1;shadow=0;swimlaneFillColor=none;strokeWidth=2;perimeterSpacing=3;" parent="POGBTDIMJyqNncyOfnlp-153" vertex="1">
          <mxGeometry width="140" height="30" as="geometry">
            <mxRectangle width="140" height="30" as="alternateBounds" />
          </mxGeometry>
        </mxCell>
        <mxCell id="POGBTDIMJyqNncyOfnlp-155" value="blog_id" style="shape=partialRectangle;connectable=0;fillColor=none;top=0;left=0;bottom=0;right=0;align=left;spacingLeft=6;overflow=hidden;html=1;whiteSpace=wrap;swimlaneLine=1;shadow=0;swimlaneFillColor=none;strokeWidth=2;perimeterSpacing=3;" parent="POGBTDIMJyqNncyOfnlp-153" vertex="1">
          <mxGeometry x="140" width="140" height="30" as="geometry">
            <mxRectangle width="140" height="30" as="alternateBounds" />
          </mxGeometry>
        </mxCell>
        <mxCell id="POGBTDIMJyqNncyOfnlp-156" value="INTEGER &lt;b&gt;NOT NULL&lt;/b&gt;" style="shape=partialRectangle;connectable=0;fillColor=none;top=0;left=0;bottom=0;right=0;align=left;spacingLeft=6;overflow=hidden;html=1;whiteSpace=wrap;swimlaneLine=1;shadow=0;swimlaneFillColor=none;strokeWidth=2;perimeterSpacing=3;" parent="POGBTDIMJyqNncyOfnlp-153" vertex="1">
          <mxGeometry x="280" width="190" height="30" as="geometry">
            <mxRectangle width="190" height="30" as="alternateBounds" />
          </mxGeometry>
        </mxCell>
        <mxCell id="POGBTDIMJyqNncyOfnlp-174" style="shape=tableRow;horizontal=0;startSize=0;swimlaneHead=0;swimlaneBody=0;fillColor=none;collapsible=0;dropTarget=0;points=[[0,0.5],[1,0.5]];portConstraint=eastwest;top=0;left=0;right=0;bottom=0;html=1;swimlaneLine=1;shadow=0;swimlaneFillColor=none;strokeWidth=2;perimeterSpacing=3;" parent="POGBTDIMJyqNncyOfnlp-148" vertex="1">
          <mxGeometry y="90" width="470" height="30" as="geometry" />
        </mxCell>
        <mxCell id="POGBTDIMJyqNncyOfnlp-175" value="&lt;b&gt;FK users.&lt;/b&gt;&lt;b&gt;id&lt;/b&gt;" style="shape=partialRectangle;connectable=0;fillColor=none;top=0;left=0;bottom=0;right=0;editable=1;overflow=hidden;html=1;whiteSpace=wrap;swimlaneLine=1;shadow=0;swimlaneFillColor=none;strokeWidth=2;perimeterSpacing=3;" parent="POGBTDIMJyqNncyOfnlp-174" vertex="1">
          <mxGeometry width="140" height="30" as="geometry">
            <mxRectangle width="140" height="30" as="alternateBounds" />
          </mxGeometry>
        </mxCell>
        <mxCell id="POGBTDIMJyqNncyOfnlp-176" value="user_id" style="shape=partialRectangle;connectable=0;fillColor=none;top=0;left=0;bottom=0;right=0;align=left;spacingLeft=6;overflow=hidden;html=1;whiteSpace=wrap;swimlaneLine=1;shadow=0;swimlaneFillColor=none;strokeWidth=2;perimeterSpacing=3;" parent="POGBTDIMJyqNncyOfnlp-174" vertex="1">
          <mxGeometry x="140" width="140" height="30" as="geometry">
            <mxRectangle width="140" height="30" as="alternateBounds" />
          </mxGeometry>
        </mxCell>
        <mxCell id="POGBTDIMJyqNncyOfnlp-177" value="INTEGER&amp;nbsp;&lt;b&gt;NOT NULL&lt;/b&gt;" style="shape=partialRectangle;connectable=0;fillColor=none;top=0;left=0;bottom=0;right=0;align=left;spacingLeft=6;overflow=hidden;html=1;whiteSpace=wrap;swimlaneLine=1;shadow=0;swimlaneFillColor=none;strokeWidth=2;perimeterSpacing=3;" parent="POGBTDIMJyqNncyOfnlp-174" vertex="1">
          <mxGeometry x="280" width="190" height="30" as="geometry">
            <mxRectangle width="190" height="30" as="alternateBounds" />
          </mxGeometry>
        </mxCell>
        <mxCell id="POGBTDIMJyqNncyOfnlp-157" style="shape=tableRow;horizontal=0;startSize=0;swimlaneHead=0;swimlaneBody=0;fillColor=none;collapsible=0;dropTarget=0;points=[[0,0.5],[1,0.5]];portConstraint=eastwest;top=0;left=0;right=0;bottom=0;html=1;swimlaneLine=1;shadow=0;swimlaneFillColor=none;strokeWidth=2;perimeterSpacing=3;" parent="POGBTDIMJyqNncyOfnlp-148" vertex="1">
          <mxGeometry y="120" width="470" height="30" as="geometry" />
        </mxCell>
        <mxCell id="POGBTDIMJyqNncyOfnlp-158" style="shape=partialRectangle;connectable=0;fillColor=none;top=0;left=0;bottom=0;right=0;editable=1;overflow=hidden;html=1;whiteSpace=wrap;swimlaneLine=1;shadow=0;swimlaneFillColor=none;strokeWidth=2;perimeterSpacing=3;" parent="POGBTDIMJyqNncyOfnlp-157" vertex="1">
          <mxGeometry width="140" height="30" as="geometry">
            <mxRectangle width="140" height="30" as="alternateBounds" />
          </mxGeometry>
        </mxCell>
        <mxCell id="POGBTDIMJyqNncyOfnlp-159" value="created_at" style="shape=partialRectangle;connectable=0;fillColor=none;top=0;left=0;bottom=0;right=0;align=left;spacingLeft=6;overflow=hidden;html=1;whiteSpace=wrap;swimlaneLine=1;shadow=0;swimlaneFillColor=none;strokeWidth=2;perimeterSpacing=3;" parent="POGBTDIMJyqNncyOfnlp-157" vertex="1">
          <mxGeometry x="140" width="140" height="30" as="geometry">
            <mxRectangle width="140" height="30" as="alternateBounds" />
          </mxGeometry>
        </mxCell>
        <mxCell id="POGBTDIMJyqNncyOfnlp-160" value="TIMESTAMP&amp;nbsp;&lt;b&gt;NOT NULL&lt;/b&gt;" style="shape=partialRectangle;connectable=0;fillColor=none;top=0;left=0;bottom=0;right=0;align=left;spacingLeft=6;overflow=hidden;html=1;whiteSpace=wrap;swimlaneLine=1;shadow=0;swimlaneFillColor=none;strokeWidth=2;perimeterSpacing=3;" parent="POGBTDIMJyqNncyOfnlp-157" vertex="1">
          <mxGeometry x="280" width="190" height="30" as="geometry">
            <mxRectangle width="190" height="30" as="alternateBounds" />
          </mxGeometry>
        </mxCell>
        <mxCell id="POGBTDIMJyqNncyOfnlp-169" style="shape=tableRow;horizontal=0;startSize=0;swimlaneHead=0;swimlaneBody=0;fillColor=none;collapsible=0;dropTarget=0;points=[[0,0.5],[1,0.5]];portConstraint=eastwest;top=0;left=0;right=0;bottom=0;html=1;swimlaneLine=1;shadow=0;swimlaneFillColor=none;strokeWidth=2;perimeterSpacing=3;" parent="POGBTDIMJyqNncyOfnlp-148" vertex="1">
          <mxGeometry y="150" width="470" height="30" as="geometry" />
        </mxCell>
        <mxCell id="POGBTDIMJyqNncyOfnlp-170" style="shape=partialRectangle;connectable=0;fillColor=none;top=0;left=0;bottom=0;right=0;editable=1;overflow=hidden;html=1;whiteSpace=wrap;swimlaneLine=1;shadow=0;swimlaneFillColor=none;strokeWidth=2;perimeterSpacing=3;" parent="POGBTDIMJyqNncyOfnlp-169" vertex="1">
          <mxGeometry width="140" height="30" as="geometry">
            <mxRectangle width="140" height="30" as="alternateBounds" />
          </mxGeometry>
        </mxCell>
        <mxCell id="POGBTDIMJyqNncyOfnlp-171" value="content" style="shape=partialRectangle;connectable=0;fillColor=none;top=0;left=0;bottom=0;right=0;align=left;spacingLeft=6;overflow=hidden;html=1;whiteSpace=wrap;swimlaneLine=1;shadow=0;swimlaneFillColor=none;strokeWidth=2;perimeterSpacing=3;" parent="POGBTDIMJyqNncyOfnlp-169" vertex="1">
          <mxGeometry x="140" width="140" height="30" as="geometry">
            <mxRectangle width="140" height="30" as="alternateBounds" />
          </mxGeometry>
        </mxCell>
        <mxCell id="POGBTDIMJyqNncyOfnlp-172" value="TEXT&amp;nbsp;&lt;b&gt;NOT NULL&lt;/b&gt;" style="shape=partialRectangle;connectable=0;fillColor=none;top=0;left=0;bottom=0;right=0;align=left;spacingLeft=6;overflow=hidden;html=1;whiteSpace=wrap;swimlaneLine=1;shadow=0;swimlaneFillColor=none;strokeWidth=2;perimeterSpacing=3;" parent="POGBTDIMJyqNncyOfnlp-169" vertex="1">
          <mxGeometry x="280" width="190" height="30" as="geometry">
            <mxRectangle width="190" height="30" as="alternateBounds" />
          </mxGeometry>
        </mxCell>
        <mxCell id="POGBTDIMJyqNncyOfnlp-199" style="shape=tableRow;horizontal=0;startSize=0;swimlaneHead=0;swimlaneBody=0;fillColor=none;collapsible=0;dropTarget=0;points=[[0,0.5],[1,0.5]];portConstraint=eastwest;top=0;left=0;right=0;bottom=0;html=1;swimlaneLine=1;shadow=0;swimlaneFillColor=none;strokeWidth=2;perimeterSpacing=3;" parent="POGBTDIMJyqNncyOfnlp-148" vertex="1">
          <mxGeometry y="180" width="470" height="30" as="geometry" />
        </mxCell>
        <mxCell id="POGBTDIMJyqNncyOfnlp-200" style="shape=partialRectangle;connectable=0;fillColor=none;top=0;left=0;bottom=0;right=0;editable=1;overflow=hidden;html=1;whiteSpace=wrap;swimlaneLine=1;shadow=0;swimlaneFillColor=none;strokeWidth=2;perimeterSpacing=3;" parent="POGBTDIMJyqNncyOfnlp-199" vertex="1">
          <mxGeometry width="140" height="30" as="geometry">
            <mxRectangle width="140" height="30" as="alternateBounds" />
          </mxGeometry>
        </mxCell>
        <mxCell id="POGBTDIMJyqNncyOfnlp-201" value="replied_to_comment_id" style="shape=partialRectangle;connectable=0;fillColor=none;top=0;left=0;bottom=0;right=0;align=left;spacingLeft=6;overflow=hidden;html=1;whiteSpace=wrap;swimlaneLine=1;shadow=0;swimlaneFillColor=none;strokeWidth=2;perimeterSpacing=3;" parent="POGBTDIMJyqNncyOfnlp-199" vertex="1">
          <mxGeometry x="140" width="140" height="30" as="geometry">
            <mxRectangle width="140" height="30" as="alternateBounds" />
          </mxGeometry>
        </mxCell>
        <mxCell id="POGBTDIMJyqNncyOfnlp-202" value="INTEGER" style="shape=partialRectangle;connectable=0;fillColor=none;top=0;left=0;bottom=0;right=0;align=left;spacingLeft=6;overflow=hidden;html=1;whiteSpace=wrap;swimlaneLine=1;shadow=0;swimlaneFillColor=none;strokeWidth=2;perimeterSpacing=3;" parent="POGBTDIMJyqNncyOfnlp-199" vertex="1">
          <mxGeometry x="280" width="190" height="30" as="geometry">
            <mxRectangle width="190" height="30" as="alternateBounds" />
          </mxGeometry>
        </mxCell>
        <mxCell id="POGBTDIMJyqNncyOfnlp-183" style="shape=tableRow;horizontal=0;startSize=0;swimlaneHead=0;swimlaneBody=0;fillColor=none;collapsible=0;dropTarget=0;points=[[0,0.5],[1,0.5]];portConstraint=eastwest;top=0;left=0;right=0;bottom=0;html=1;swimlaneLine=1;shadow=0;swimlaneFillColor=none;strokeWidth=2;perimeterSpacing=3;" parent="POGBTDIMJyqNncyOfnlp-148" vertex="1">
          <mxGeometry y="210" width="470" height="30" as="geometry" />
        </mxCell>
        <mxCell id="POGBTDIMJyqNncyOfnlp-184" style="shape=partialRectangle;connectable=0;fillColor=none;top=0;left=0;bottom=0;right=0;editable=1;overflow=hidden;html=1;whiteSpace=wrap;swimlaneLine=1;shadow=0;swimlaneFillColor=none;strokeWidth=2;perimeterSpacing=3;" parent="POGBTDIMJyqNncyOfnlp-183" vertex="1">
          <mxGeometry width="140" height="30" as="geometry">
            <mxRectangle width="140" height="30" as="alternateBounds" />
          </mxGeometry>
        </mxCell>
        <mxCell id="POGBTDIMJyqNncyOfnlp-185" value="comment_&lt;span style=&quot;background-color: transparent; color: light-dark(rgb(0, 0, 0), rgb(255, 255, 255));&quot;&gt;status&lt;/span&gt;" style="shape=partialRectangle;connectable=0;fillColor=none;top=0;left=0;bottom=0;right=0;align=left;spacingLeft=6;overflow=hidden;html=1;whiteSpace=wrap;swimlaneLine=1;shadow=0;swimlaneFillColor=none;strokeWidth=2;perimeterSpacing=3;" parent="POGBTDIMJyqNncyOfnlp-183" vertex="1">
          <mxGeometry x="140" width="140" height="30" as="geometry">
            <mxRectangle width="140" height="30" as="alternateBounds" />
          </mxGeometry>
        </mxCell>
        <mxCell id="POGBTDIMJyqNncyOfnlp-186" value="TEXT&amp;nbsp;&lt;b&gt;NOT NULL&lt;/b&gt;" style="shape=partialRectangle;connectable=0;fillColor=none;top=0;left=0;bottom=0;right=0;align=left;spacingLeft=6;overflow=hidden;html=1;whiteSpace=wrap;swimlaneLine=1;shadow=0;swimlaneFillColor=none;strokeWidth=2;perimeterSpacing=3;" parent="POGBTDIMJyqNncyOfnlp-183" vertex="1">
          <mxGeometry x="280" width="190" height="30" as="geometry">
            <mxRectangle width="190" height="30" as="alternateBounds" />
          </mxGeometry>
        </mxCell>
        <mxCell id="POGBTDIMJyqNncyOfnlp-203" value="subscriptions" style="shape=table;startSize=30;container=1;collapsible=1;childLayout=tableLayout;fixedRows=1;rowLines=0;fontStyle=1;align=center;resizeLast=1;html=1;whiteSpace=wrap;swimlaneLine=1;shadow=0;swimlaneFillColor=none;strokeWidth=2;perimeterSpacing=3;spacingTop=0;" parent="1" vertex="1">
          <mxGeometry x="830" y="1010" width="370" height="120" as="geometry" />
        </mxCell>
        <mxCell id="POGBTDIMJyqNncyOfnlp-208" style="shape=tableRow;horizontal=0;startSize=0;swimlaneHead=0;swimlaneBody=0;fillColor=none;collapsible=0;dropTarget=0;points=[[0,0.5],[1,0.5]];portConstraint=eastwest;top=0;left=0;right=0;bottom=0;html=1;swimlaneLine=1;shadow=0;swimlaneFillColor=none;strokeWidth=2;perimeterSpacing=3;" parent="POGBTDIMJyqNncyOfnlp-203" vertex="1">
          <mxGeometry y="30" width="370" height="30" as="geometry" />
        </mxCell>
        <mxCell id="POGBTDIMJyqNncyOfnlp-209" value="&lt;b&gt;FK users.id&lt;/b&gt;" style="shape=partialRectangle;connectable=0;fillColor=none;top=0;left=0;bottom=0;right=0;editable=1;overflow=hidden;html=1;whiteSpace=wrap;swimlaneLine=1;shadow=0;swimlaneFillColor=none;strokeWidth=2;perimeterSpacing=3;" parent="POGBTDIMJyqNncyOfnlp-208" vertex="1">
          <mxGeometry width="130" height="30" as="geometry">
            <mxRectangle width="130" height="30" as="alternateBounds" />
          </mxGeometry>
        </mxCell>
        <mxCell id="POGBTDIMJyqNncyOfnlp-210" value="follower_id" style="shape=partialRectangle;connectable=0;fillColor=none;top=0;left=0;bottom=0;right=0;align=left;spacingLeft=6;overflow=hidden;html=1;whiteSpace=wrap;swimlaneLine=1;shadow=0;swimlaneFillColor=none;strokeWidth=2;perimeterSpacing=3;" parent="POGBTDIMJyqNncyOfnlp-208" vertex="1">
          <mxGeometry x="130" width="90" height="30" as="geometry">
            <mxRectangle width="90" height="30" as="alternateBounds" />
          </mxGeometry>
        </mxCell>
        <mxCell id="POGBTDIMJyqNncyOfnlp-211" value="INTEGER &lt;b&gt;NOT NULL&lt;/b&gt;" style="shape=partialRectangle;connectable=0;fillColor=none;top=0;left=0;bottom=0;right=0;align=left;spacingLeft=6;overflow=hidden;html=1;whiteSpace=wrap;swimlaneLine=1;shadow=0;swimlaneFillColor=none;strokeWidth=2;perimeterSpacing=3;" parent="POGBTDIMJyqNncyOfnlp-208" vertex="1">
          <mxGeometry x="220" width="150" height="30" as="geometry">
            <mxRectangle width="150" height="30" as="alternateBounds" />
          </mxGeometry>
        </mxCell>
        <mxCell id="POGBTDIMJyqNncyOfnlp-212" value="" style="shape=tableRow;horizontal=0;startSize=0;swimlaneHead=0;swimlaneBody=0;fillColor=none;collapsible=0;dropTarget=0;points=[[0,0.5],[1,0.5]];portConstraint=eastwest;top=0;left=0;right=0;bottom=0;html=1;swimlaneLine=1;shadow=0;swimlaneFillColor=none;strokeWidth=2;perimeterSpacing=3;" parent="POGBTDIMJyqNncyOfnlp-203" vertex="1">
          <mxGeometry y="60" width="370" height="30" as="geometry" />
        </mxCell>
        <mxCell id="POGBTDIMJyqNncyOfnlp-213" value="&lt;b&gt;FK users.id&lt;/b&gt;" style="shape=partialRectangle;connectable=0;fillColor=none;top=0;left=0;bottom=0;right=0;editable=1;overflow=hidden;html=1;whiteSpace=wrap;swimlaneLine=1;shadow=0;swimlaneFillColor=none;strokeWidth=2;perimeterSpacing=3;" parent="POGBTDIMJyqNncyOfnlp-212" vertex="1">
          <mxGeometry width="130" height="30" as="geometry">
            <mxRectangle width="130" height="30" as="alternateBounds" />
          </mxGeometry>
        </mxCell>
        <mxCell id="POGBTDIMJyqNncyOfnlp-214" value="following_id" style="shape=partialRectangle;connectable=0;fillColor=none;top=0;left=0;bottom=0;right=0;align=left;spacingLeft=6;overflow=hidden;html=1;whiteSpace=wrap;swimlaneLine=1;shadow=0;swimlaneFillColor=none;strokeWidth=2;perimeterSpacing=3;" parent="POGBTDIMJyqNncyOfnlp-212" vertex="1">
          <mxGeometry x="130" width="90" height="30" as="geometry">
            <mxRectangle width="90" height="30" as="alternateBounds" />
          </mxGeometry>
        </mxCell>
        <mxCell id="POGBTDIMJyqNncyOfnlp-215" value="INTEGER&amp;nbsp;&lt;b&gt;NOT NULL&lt;/b&gt;" style="shape=partialRectangle;connectable=0;fillColor=none;top=0;left=0;bottom=0;right=0;align=left;spacingLeft=6;overflow=hidden;html=1;whiteSpace=wrap;swimlaneLine=1;shadow=0;swimlaneFillColor=none;strokeWidth=2;perimeterSpacing=3;" parent="POGBTDIMJyqNncyOfnlp-212" vertex="1">
          <mxGeometry x="220" width="150" height="30" as="geometry">
            <mxRectangle width="150" height="30" as="alternateBounds" />
          </mxGeometry>
        </mxCell>
        <mxCell id="POGBTDIMJyqNncyOfnlp-220" style="shape=tableRow;horizontal=0;startSize=0;swimlaneHead=0;swimlaneBody=0;fillColor=none;collapsible=0;dropTarget=0;points=[[0,0.5],[1,0.5]];portConstraint=eastwest;top=0;left=0;right=0;bottom=0;html=1;swimlaneLine=1;shadow=0;swimlaneFillColor=none;strokeWidth=2;perimeterSpacing=3;" parent="POGBTDIMJyqNncyOfnlp-203" vertex="1">
          <mxGeometry y="90" width="370" height="30" as="geometry" />
        </mxCell>
        <mxCell id="POGBTDIMJyqNncyOfnlp-221" style="shape=partialRectangle;connectable=0;fillColor=none;top=0;left=0;bottom=0;right=0;editable=1;overflow=hidden;html=1;whiteSpace=wrap;swimlaneLine=1;shadow=0;swimlaneFillColor=none;strokeWidth=2;perimeterSpacing=3;" parent="POGBTDIMJyqNncyOfnlp-220" vertex="1">
          <mxGeometry width="130" height="30" as="geometry">
            <mxRectangle width="130" height="30" as="alternateBounds" />
          </mxGeometry>
        </mxCell>
        <mxCell id="POGBTDIMJyqNncyOfnlp-222" value="created_at" style="shape=partialRectangle;connectable=0;fillColor=none;top=0;left=0;bottom=0;right=0;align=left;spacingLeft=6;overflow=hidden;html=1;whiteSpace=wrap;swimlaneLine=1;shadow=0;swimlaneFillColor=none;strokeWidth=2;perimeterSpacing=3;" parent="POGBTDIMJyqNncyOfnlp-220" vertex="1">
          <mxGeometry x="130" width="90" height="30" as="geometry">
            <mxRectangle width="90" height="30" as="alternateBounds" />
          </mxGeometry>
        </mxCell>
        <mxCell id="POGBTDIMJyqNncyOfnlp-223" value="TIMESTAMP&amp;nbsp;&lt;b&gt;not null&lt;/b&gt;" style="shape=partialRectangle;connectable=0;fillColor=none;top=0;left=0;bottom=0;right=0;align=left;spacingLeft=6;overflow=hidden;html=1;whiteSpace=wrap;swimlaneLine=1;shadow=0;swimlaneFillColor=none;strokeWidth=2;perimeterSpacing=3;" parent="POGBTDIMJyqNncyOfnlp-220" vertex="1">
          <mxGeometry x="220" width="150" height="30" as="geometry">
            <mxRectangle width="150" height="30" as="alternateBounds" />
          </mxGeometry>
        </mxCell>
        <mxCell id="POGBTDIMJyqNncyOfnlp-228" value="reactions" style="shape=table;startSize=30;container=1;collapsible=1;childLayout=tableLayout;fixedRows=1;rowLines=0;fontStyle=1;align=center;resizeLast=1;html=1;whiteSpace=wrap;swimlaneLine=1;shadow=0;swimlaneFillColor=none;strokeWidth=2;perimeterSpacing=3;spacingTop=0;" parent="1" vertex="1">
          <mxGeometry x="830" y="1150" width="430" height="150" as="geometry" />
        </mxCell>
        <mxCell id="POGBTDIMJyqNncyOfnlp-229" style="shape=tableRow;horizontal=0;startSize=0;swimlaneHead=0;swimlaneBody=0;fillColor=none;collapsible=0;dropTarget=0;points=[[0,0.5],[1,0.5]];portConstraint=eastwest;top=0;left=0;right=0;bottom=0;html=1;swimlaneLine=1;shadow=0;swimlaneFillColor=none;strokeWidth=2;perimeterSpacing=3;" parent="POGBTDIMJyqNncyOfnlp-228" vertex="1">
          <mxGeometry y="30" width="430" height="30" as="geometry" />
        </mxCell>
        <mxCell id="POGBTDIMJyqNncyOfnlp-230" value="&lt;b&gt;FK users.id&lt;/b&gt;" style="shape=partialRectangle;connectable=0;fillColor=none;top=0;left=0;bottom=0;right=0;editable=1;overflow=hidden;html=1;whiteSpace=wrap;swimlaneLine=1;shadow=0;swimlaneFillColor=none;strokeWidth=2;perimeterSpacing=3;" parent="POGBTDIMJyqNncyOfnlp-229" vertex="1">
          <mxGeometry width="190" height="30" as="geometry">
            <mxRectangle width="190" height="30" as="alternateBounds" />
          </mxGeometry>
        </mxCell>
        <mxCell id="POGBTDIMJyqNncyOfnlp-231" value="user_id" style="shape=partialRectangle;connectable=0;fillColor=none;top=0;left=0;bottom=0;right=0;align=left;spacingLeft=6;overflow=hidden;html=1;whiteSpace=wrap;swimlaneLine=1;shadow=0;swimlaneFillColor=none;strokeWidth=2;perimeterSpacing=3;" parent="POGBTDIMJyqNncyOfnlp-229" vertex="1">
          <mxGeometry x="190" width="90" height="30" as="geometry">
            <mxRectangle width="90" height="30" as="alternateBounds" />
          </mxGeometry>
        </mxCell>
        <mxCell id="POGBTDIMJyqNncyOfnlp-232" value="INTEGER&amp;nbsp;&lt;b&gt;NOT NULL&lt;/b&gt;" style="shape=partialRectangle;connectable=0;fillColor=none;top=0;left=0;bottom=0;right=0;align=left;spacingLeft=6;overflow=hidden;html=1;whiteSpace=wrap;swimlaneLine=1;shadow=0;swimlaneFillColor=none;strokeWidth=2;perimeterSpacing=3;" parent="POGBTDIMJyqNncyOfnlp-229" vertex="1">
          <mxGeometry x="280" width="150" height="30" as="geometry">
            <mxRectangle width="150" height="30" as="alternateBounds" />
          </mxGeometry>
        </mxCell>
        <mxCell id="POGBTDIMJyqNncyOfnlp-233" value="" style="shape=tableRow;horizontal=0;startSize=0;swimlaneHead=0;swimlaneBody=0;fillColor=none;collapsible=0;dropTarget=0;points=[[0,0.5],[1,0.5]];portConstraint=eastwest;top=0;left=0;right=0;bottom=0;html=1;swimlaneLine=1;shadow=0;swimlaneFillColor=none;strokeWidth=2;perimeterSpacing=3;" parent="POGBTDIMJyqNncyOfnlp-228" vertex="1">
          <mxGeometry y="60" width="430" height="30" as="geometry" />
        </mxCell>
        <mxCell id="POGBTDIMJyqNncyOfnlp-234" value="&lt;b&gt;FK comments.id&lt;/b&gt;" style="shape=partialRectangle;connectable=0;fillColor=none;top=0;left=0;bottom=0;right=0;editable=1;overflow=hidden;html=1;whiteSpace=wrap;swimlaneLine=1;shadow=0;swimlaneFillColor=none;strokeWidth=2;perimeterSpacing=3;" parent="POGBTDIMJyqNncyOfnlp-233" vertex="1">
          <mxGeometry width="190" height="30" as="geometry">
            <mxRectangle width="190" height="30" as="alternateBounds" />
          </mxGeometry>
        </mxCell>
        <mxCell id="POGBTDIMJyqNncyOfnlp-235" value="comment_id" style="shape=partialRectangle;connectable=0;fillColor=none;top=0;left=0;bottom=0;right=0;align=left;spacingLeft=6;overflow=hidden;html=1;whiteSpace=wrap;swimlaneLine=1;shadow=0;swimlaneFillColor=none;strokeWidth=2;perimeterSpacing=3;" parent="POGBTDIMJyqNncyOfnlp-233" vertex="1">
          <mxGeometry x="190" width="90" height="30" as="geometry">
            <mxRectangle width="90" height="30" as="alternateBounds" />
          </mxGeometry>
        </mxCell>
        <mxCell id="POGBTDIMJyqNncyOfnlp-236" value="INTEGER&amp;nbsp;&lt;b&gt;NOT NULL&lt;/b&gt;" style="shape=partialRectangle;connectable=0;fillColor=none;top=0;left=0;bottom=0;right=0;align=left;spacingLeft=6;overflow=hidden;html=1;whiteSpace=wrap;swimlaneLine=1;shadow=0;swimlaneFillColor=none;strokeWidth=2;perimeterSpacing=3;" parent="POGBTDIMJyqNncyOfnlp-233" vertex="1">
          <mxGeometry x="280" width="150" height="30" as="geometry">
            <mxRectangle width="150" height="30" as="alternateBounds" />
          </mxGeometry>
        </mxCell>
        <mxCell id="POGBTDIMJyqNncyOfnlp-241" style="shape=tableRow;horizontal=0;startSize=0;swimlaneHead=0;swimlaneBody=0;fillColor=none;collapsible=0;dropTarget=0;points=[[0,0.5],[1,0.5]];portConstraint=eastwest;top=0;left=0;right=0;bottom=0;html=1;swimlaneLine=1;shadow=0;swimlaneFillColor=none;strokeWidth=2;perimeterSpacing=3;" parent="POGBTDIMJyqNncyOfnlp-228" vertex="1">
          <mxGeometry y="90" width="430" height="30" as="geometry" />
        </mxCell>
        <mxCell id="POGBTDIMJyqNncyOfnlp-242" style="shape=partialRectangle;connectable=0;fillColor=none;top=0;left=0;bottom=0;right=0;editable=1;overflow=hidden;html=1;whiteSpace=wrap;swimlaneLine=1;shadow=0;swimlaneFillColor=none;strokeWidth=2;perimeterSpacing=3;" parent="POGBTDIMJyqNncyOfnlp-241" vertex="1">
          <mxGeometry width="190" height="30" as="geometry">
            <mxRectangle width="190" height="30" as="alternateBounds" />
          </mxGeometry>
        </mxCell>
        <mxCell id="POGBTDIMJyqNncyOfnlp-243" value="reaction" style="shape=partialRectangle;connectable=0;fillColor=none;top=0;left=0;bottom=0;right=0;align=left;spacingLeft=6;overflow=hidden;html=1;whiteSpace=wrap;swimlaneLine=1;shadow=0;swimlaneFillColor=none;strokeWidth=2;perimeterSpacing=3;" parent="POGBTDIMJyqNncyOfnlp-241" vertex="1">
          <mxGeometry x="190" width="90" height="30" as="geometry">
            <mxRectangle width="90" height="30" as="alternateBounds" />
          </mxGeometry>
        </mxCell>
        <mxCell id="POGBTDIMJyqNncyOfnlp-244" value="TEXT &lt;b&gt;NOT NULL&lt;/b&gt;" style="shape=partialRectangle;connectable=0;fillColor=none;top=0;left=0;bottom=0;right=0;align=left;spacingLeft=6;overflow=hidden;html=1;whiteSpace=wrap;swimlaneLine=1;shadow=0;swimlaneFillColor=none;strokeWidth=2;perimeterSpacing=3;" parent="POGBTDIMJyqNncyOfnlp-241" vertex="1">
          <mxGeometry x="280" width="150" height="30" as="geometry">
            <mxRectangle width="150" height="30" as="alternateBounds" />
          </mxGeometry>
        </mxCell>
        <mxCell id="POGBTDIMJyqNncyOfnlp-237" style="shape=tableRow;horizontal=0;startSize=0;swimlaneHead=0;swimlaneBody=0;fillColor=none;collapsible=0;dropTarget=0;points=[[0,0.5],[1,0.5]];portConstraint=eastwest;top=0;left=0;right=0;bottom=0;html=1;swimlaneLine=1;shadow=0;swimlaneFillColor=none;strokeWidth=2;perimeterSpacing=3;" parent="POGBTDIMJyqNncyOfnlp-228" vertex="1">
          <mxGeometry y="120" width="430" height="30" as="geometry" />
        </mxCell>
        <mxCell id="POGBTDIMJyqNncyOfnlp-238" style="shape=partialRectangle;connectable=0;fillColor=none;top=0;left=0;bottom=0;right=0;editable=1;overflow=hidden;html=1;whiteSpace=wrap;swimlaneLine=1;shadow=0;swimlaneFillColor=none;strokeWidth=2;perimeterSpacing=3;" parent="POGBTDIMJyqNncyOfnlp-237" vertex="1">
          <mxGeometry width="190" height="30" as="geometry">
            <mxRectangle width="190" height="30" as="alternateBounds" />
          </mxGeometry>
        </mxCell>
        <mxCell id="POGBTDIMJyqNncyOfnlp-239" value="created_at" style="shape=partialRectangle;connectable=0;fillColor=none;top=0;left=0;bottom=0;right=0;align=left;spacingLeft=6;overflow=hidden;html=1;whiteSpace=wrap;swimlaneLine=1;shadow=0;swimlaneFillColor=none;strokeWidth=2;perimeterSpacing=3;" parent="POGBTDIMJyqNncyOfnlp-237" vertex="1">
          <mxGeometry x="190" width="90" height="30" as="geometry">
            <mxRectangle width="90" height="30" as="alternateBounds" />
          </mxGeometry>
        </mxCell>
        <mxCell id="POGBTDIMJyqNncyOfnlp-240" value="TIMESTAMP&amp;nbsp;&lt;b&gt;not null&lt;/b&gt;" style="shape=partialRectangle;connectable=0;fillColor=none;top=0;left=0;bottom=0;right=0;align=left;spacingLeft=6;overflow=hidden;html=1;whiteSpace=wrap;swimlaneLine=1;shadow=0;swimlaneFillColor=none;strokeWidth=2;perimeterSpacing=3;" parent="POGBTDIMJyqNncyOfnlp-237" vertex="1">
          <mxGeometry x="280" width="150" height="30" as="geometry">
            <mxRectangle width="150" height="30" as="alternateBounds" />
          </mxGeometry>
        </mxCell>
      </root>
    </mxGraphModel>
  </diagram>
</mxfile>
